{
    "asset" : {
        "generator" : "Khronos glTF Blender I/O v3.3.27",
        "version" : "2.0"
    },
    "scene" : 0,
    "scenes" : [
        {
            "name" : "Scene",
            "nodes" : [
                0
            ]
        }
    ],
    "nodes" : [
        {
            "mesh" : 0,
            "name" : "King_W",
            "scale" : [
                0.034822188317775726,
                0.034822188317775726,
                0.034822188317775726
            ]
        }
    ],
    "materials" : [
        {
            "doubleSided" : true,
            "name" : "Black",
            "pbrMetallicRoughness" : {
                "baseColorTexture" : {
                    "index" : 0
                },
                "metallicFactor" : 0,
                "roughnessFactor" : 0.22727273404598236
            }
        }
    ],
    "meshes" : [
        {
            "name" : "Cylinder.002",
            "primitives" : [
                {
                    "attributes" : {
                        "POSITION" : 0,
                        "NORMAL" : 1,
                        "TEXCOORD_0" : 2
                    },
                    "indices" : 3,
                    "material" : 0
                }
            ]
        }
    ],
    "textures" : [
        {
            "sampler" : 0,
            "source" : 0
        }
    ],
    "images" : [
        {
            "bufferView" : 4,
            "mimeType" : "image/png",
            "name" : "texture"
        }
    ],
    "accessors" : [
        {
            "bufferView" : 0,
            "componentType" : 5126,
            "count" : 4523,
            "max" : [
                0.704384446144104,
                1.6713420152664185,
                0.7109525203704834
            ],
            "min" : [
                -0.7098335027694702,
                -1.6855008602142334,
                -0.7109958529472351
            ],
            "type" : "VEC3"
        },
        {
            "bufferView" : 1,
            "componentType" : 5126,
            "count" : 4523,
            "type" : "VEC3"
        },
        {
            "bufferView" : 2,
            "componentType" : 5126,
            "count" : 4523,
            "type" : "VEC2"
        },
        {
            "bufferView" : 3,
            "componentType" : 5123,
            "count" : 18684,
            "type" : "SCALAR"
        }
    ],
    "bufferViews" : [
        {
            "buffer" : 0,
            "byteLength" : 54276,
            "byteOffset" : 0,
            "target" : 34962
        },
        {
            "buffer" : 0,
            "byteLength" : 54276,
            "byteOffset" : 54276,
            "target" : 34962
        },
        {
            "buffer" : 0,
            "byteLength" : 36184,
            "byteOffset" : 108552,
            "target" : 34962
        },
        {
            "buffer" : 0,
            "byteLength" : 37368,
            "byteOffset" : 144736,
            "target" : 34963
        },
        {
            "buffer" : 0,
            "byteLength" : 595918,
            "byteOffset" : 182104
        }
    ],
    "samplers" : [
        {
            "magFilter" : 9729,
            "minFilter" : 9987
        }
    ],
    "buffers" : [
        {
            "byteLength" : 778024,
            "uri" : "data:application/octet-stream;base64,"
        }
    ]
}
